<mxfile host="app.diagrams.net" agent="Mozilla/5.0 (Windows NT 10.0; Win64; x64) AppleWebKit/537.36 (KHTML, like Gecko) Chrome/133.0.0.0 Safari/537.36" version="26.0.14">
  <diagram name="Page-1" id="bz21VVGLYWpo4IqahEjC">
    <mxGraphModel dx="794" dy="420" grid="1" gridSize="10" guides="1" tooltips="1" connect="1" arrows="1" fold="1" page="1" pageScale="1" pageWidth="827" pageHeight="1169" background="none" math="0" shadow="0">
      <root>
        <mxCell id="0" />
        <mxCell id="1" parent="0" />
        <mxCell id="f_uvDmXail2cs2dS0SPD-17" value="" style="image;aspect=fixed;html=1;points=[];align=center;fontSize=12;image=img/lib/azure2/storage/Storage_Accounts.svg;" parent="1" vertex="1">
          <mxGeometry x="552" y="272" width="31.25" height="25" as="geometry" />
        </mxCell>
        <mxCell id="-5W91e-iSZ1iDKhAKJ8N-9" value="IFCP&amp;nbsp;" style="text;html=1;align=center;verticalAlign=middle;resizable=0;points=[];autosize=1;strokeColor=none;fillColor=#CCFFFF;" parent="1" vertex="1">
          <mxGeometry x="40" y="10" width="50" height="30" as="geometry" />
        </mxCell>
        <mxCell id="-5W91e-iSZ1iDKhAKJ8N-10" value="" style="image;aspect=fixed;html=1;points=[];align=center;fontSize=12;image=img/lib/azure2/compute/Function_Apps.svg;" parent="1" vertex="1">
          <mxGeometry x="552" y="91" width="32.87" height="29" as="geometry" />
        </mxCell>
        <mxCell id="-5W91e-iSZ1iDKhAKJ8N-11" value="&lt;span style=&quot;font-size: 8px;&quot;&gt;Data pulled through the&amp;nbsp;&lt;/span&gt;&lt;div&gt;&lt;span style=&quot;font-size: 8px;&quot;&gt;API call from python function&lt;/span&gt;&lt;/div&gt;" style="text;html=1;align=center;verticalAlign=middle;resizable=0;points=[];autosize=1;strokeColor=none;fillColor=none;" parent="1" vertex="1">
          <mxGeometry x="347.00000000000006" y="58" width="130" height="40" as="geometry" />
        </mxCell>
        <mxCell id="-5W91e-iSZ1iDKhAKJ8N-13" value="" style="sketch=0;outlineConnect=0;fontColor=#232F3E;gradientColor=none;fillColor=#232F3D;strokeColor=none;dashed=0;verticalLabelPosition=bottom;verticalAlign=top;align=center;html=1;fontSize=12;fontStyle=0;aspect=fixed;pointerEvents=1;shape=mxgraph.aws4.globe;" parent="1" vertex="1">
          <mxGeometry x="250" y="90" width="30" height="30" as="geometry" />
        </mxCell>
        <mxCell id="-5W91e-iSZ1iDKhAKJ8N-14" value="&lt;font style=&quot;font-size: 8px;&quot;&gt;&lt;font style=&quot;&quot;&gt;https://nomads.ncep.noaa.gov&lt;/font&gt;&lt;font style=&quot;&quot;&gt;&amp;nbsp;&lt;font style=&quot;&quot;&gt;&lt;br&gt;https://forecasts.windbornesystems.com&lt;br&gt;https://sensor-data.windbornesystems.com&lt;/font&gt;&lt;/font&gt;&lt;/font&gt;" style="text;html=1;align=center;verticalAlign=middle;resizable=0;points=[];autosize=1;strokeColor=none;fillColor=none;" parent="1" vertex="1">
          <mxGeometry x="80" y="77" width="180" height="60" as="geometry" />
        </mxCell>
        <mxCell id="-5W91e-iSZ1iDKhAKJ8N-15" value="" style="endArrow=classic;html=1;rounded=0;exitX=0.712;exitY=-0.078;exitDx=0;exitDy=0;exitPerimeter=0;" parent="1" edge="1">
          <mxGeometry width="50" height="50" relative="1" as="geometry">
            <mxPoint x="290.4399999999998" y="104.52000000000008" as="sourcePoint" />
            <mxPoint x="537" y="105" as="targetPoint" />
          </mxGeometry>
        </mxCell>
        <mxCell id="-5W91e-iSZ1iDKhAKJ8N-18" value="" style="shape=image;verticalLabelPosition=bottom;labelBackgroundColor=default;verticalAlign=top;aspect=fixed;imageAspect=0;image=data:image/png,iVBORw0KGgoAAAANSUhEUgAAAQYAAADBCAMAAAAace62AAAAz1BMVEX///8QIFvq6uru7vDBwcF5eXn8/PyAgIC0tbYNHloAAFAAB1KboLYDGVjaGIQAAFJBS3gAG14dLWbc3ucAElUAAE4AFlcADlQHG1gAC1Pb29v19vlzeZqWlpYAEFTi5OvMzMzP0dzJzNifpLnp6vCGjKawtMMAAEenrL+5vMs0QHFlbY+Sl65GUHtVXoW/wtA4Q3N9g6AnNWpcZIkZKGJqcpN3fZuLkapOV3/98fj31ufseLThJ47wocnzu9fmY6jiP5fcGYnqgLf64+/3zOPIBnXBAAAKY0lEQVR4nO2dfVvaSBeHE3GjSYwjkpDEKBGIFBDkRUS23Zc+3f3+n+lJfmcmb7iXtVLsdXHuf2qTMJm5c+bMmeB2NU3TjANH0yChcXTQNCDCOLq6PT5gbq+OUg1GdHV6c/LbwXJyc3oVGZrRuL05bRwwxze3jVTD0fHJqXbAnJ4cH7EG1kCwBsAaAGsArAGwBsAaAGsArAGwBsAaAGsArAGwBsAaAGsArAGwBsAaAGsArAGwBsAaAGsArAGwBsAaAGsArAGwBsAaAGsArAGwBsAaAGsArAGwBsAaAGsArAGwBsAaAGsArAGwBsAaAGsArAGwBsAaAGsArAGwBsAaAGsArAGwBsAaAGsArAGwBsAaAGsArAHsQEN3ALq77Na+2YGGySeR8mmyy27tmx1oOLP1FPtsl93aN6wBsAbAGgBrAKwBsAbAGgBrAG/XkPQGk8nZoBupAx+oIZ4N076MWkb9hNEanU0mw6KTr/BGDcZo4wph27Yl9KceHatrSKYXYDlcz/HDOK62scHReZ8umxdV+IKuv7ho5OMcUwuJpjXo1DQfctSfp91AX5aLVvkOjclSWOkJIVZ3De17eJuG1txrmzowTde76L2kYew7Gd6TNvDwk1UNlK48Go3d7M/OND+jtx06NVJHqAV3nP6Y+NnZ9kppGK0sR5cEvngsXA9dEagTtjvYuYZucWPQ9uItDcbGxzlxnz4VE86ci0ord2F20L3X7nCl2VSR2/Jku+6TunbRyf7u32Uamllj5qXU0PeCSl/8jvrM2jNLx03ve2brWzQkzeqd9fajtqXhicbib7Lu3rvoiajMijFasXpazyJhKqAntuq6qa6dwrvobWnoetWu6LaaW2srb4X+9Hq71bCgbprCSrEddYOKhgV1ojNHb3vUWatfaqUrsu4FS0OLMDBdDCtjRs+lmQhDMcNoS8OmjQudtC+e8APd7CT0kQHdMrDsy6aFi5zlVgZ9jwZjGZDkYSuJe5MLqzPW6hom1Al3LgNdp1kxLTVDUyF8Tn98bJenQOJinOXQ6kJqe6PVNcSfyMJ8FCfx7G5p2WspLkQD7ctR2oPWBvPPGmqv8QYNMXXTVjHWu+jXNQwoFpxlUhmzXp4VqwARlT3vPj4ZXNKJkQXJ2U3aD3RoKNB0f0vDiG5ky3XAGJgyfiYWNSk7gKBx5rvU0KpltPTuNQ0zxLturpQFOQN0UcwKmtQUHzInSknrLB12FlnHTZdu8uRCWXdLwwB+gmXerOwURawp1KOKRf0pvFtD3KGAHdWO5xq6FiUlJHYJTaTSWkHxYdEyRlNAro+XQTb+ZGUWh/DpgOb2S9GwNT5KRqXbIRzEq7PiDRqiS8oNbs2D1NBPArmQqCjPkNk/zPtL64QoPW3KE1orC5x07UHC6GCqx3Ypd1Q0yDhylrUXwZOwmEXgObPuL3aoQbumiW5aD5WbkwZ3MafknT3L4jxFZfE8WniMadEAKLYpE/Q9ihLkAwr3EYX0YFuDdkGriiOu8wmY8UBrw8O1ZD0NSqlmNxqSUK7EbW9eigjSoLtFUeFeb3VMrRU0J8RMtuhjaKtIXRgmJI5SqLw4eUFDT9UNHe+x9FAo1nTHVdTn5A40aLO8cnOs8aymgaAc6RZplJK97tFYKIUFqhSUD9VKxxzZpuzvPDuGhQeFhBpDrYp8zqsk13pUBVi0KheQOZUF+/0atJkf5k1b99G2Bt+hpFcU8g3SICsoWjnCPIc+h2rK4PEiSyyyGECt0CxfXNOQTqJ8e+OKu5oGs4K72a0GLVoLNTN0fxXXNVgTKgWc0n2poJYPRIZ5vh/s5akCg8fSSMfSJBoj8K3eyxq0eCPc/Mao3QsNzTJOeL9jDenNF47av7WXUVWDWMjkrtvFSjajcPBxBItNKUYjzKJsacmmh3mZNRjhA9aMijHTjv5DQxpb98JXGweM1LikNb0fVf+/C6++dviBt0/RZEVFkW49VzRkm0pZ7Jdewhh6sXOgdaK8xaB62k6SbHbIpRHJMl3kUE+1VWC9oCF7KLYvPSBXUYrsvLpA7kBDNnLKTwGentIQYlmilFguHRDuNE+wxza90sPp0wyYYW2URZNcMg3kSk85e1FD+lCeqC+ki9al8t1r/P7580sbrR98FzmkoWOSSw0dei9EG6R8Rmt5QZ3NE6wTbnmm0vwPz1BICdoixJBl95xKHvkPDWk5Q7v5ZnZCVmuiXukqCV/Oz8//+PN9GkodiCg5IaWRBkdtKumBdNbFxfIFw1BuGMWs3Chli4dsUuc5Ax9oPzp6XklvaSgFlHxtYWWH5GuIwCwXVZFq4vev5+DLuzScjfNH3LPNmoY8G9Au02wXHaUKNx0kpkdQfZ5IADrW2bwJOY2qOqsanu5b1ebNTpQbzD6bu24M843Wl3PJX+/RsPHF/LkXR41WP6AyqdnY1mDIQqGIy1huMxP0sVbgU8GM1vL4n6nSqNxMRUPk+va0303SvtB7OrXbPJPNBWlXB7PZYLJxRCjvGCkL53+/Q0M6ZU0ntMJmU8i3fZSW6q9kr9Gvch1Pr5XcJ0wXr/ISOa2n1YiDlToW+XkxaOXRXd1op6Ic2/KbrpCft5/po6ZczdOuCssSYVpjqfj7nGv4+g4NcnmQb0ayH154CaflhUKpdJAFNe0u6vX9XL16K6WTR7VLK11d0fDQVn1RDtvSl0zIFWS+/mcnGuovZHWPSti6Brkht4vvH5Kw+JDo15qdqJNWkTr7alaUXl2UNcR+baxmMXlGot5PU3ZU+5/S8O3HNUQPXqd083RHI8e59a3VGnFaejWUP7xssPXvT7pyhplmkVRjFXildZc0UIDH43xDgcvC8grZW1VEmK53Le/5p9Lwz49rSGvAtW7Z+IrFTVNEnqq3fgWsiwPiUzGE0SfPk1XOY73VqImrhVd+KaBb8mBxKKEjLs3z2aNrhdQX2zIXFbfG2dISHXy5k55sPhXJ6BtZ+HdraG8rn6Lu2fVmOp3eP8+KGzdaoNSTVv2I0U1BRLxQ2MTy8uSFY6WXbIY8lN+2N7lPuzJ9mvS2tgxGq7/O+rm5Pque/PfL16/ftmJhn78einoiWH3vl6v7ZW8aKHHKZe2XY28arrFR8JPXr/wI9qXhDhnSX79+5YewHw3djdz+/KLB8JM1pItItze4GwuqG6zJ6x/5GH6uholnC0v4tBHTO6++IP4wfq6Gyrt7d/l9v4DzEexNg2ld/JolA9iPBrMt2r/0Lwz+7Nzg21aaHfSH4S8cCtrP1jC7u+v3B9349d+6+WD4PzkDrAGwBsAaAGsArAGwBsAaAGsArAGwBsAaAGsArAGwBsAaAGsArAGwBsAaAGsArAGwBsAaAGsArAGwBsAaAGsArAGwBsAaAGsArAGwBsAaAGsArAGwBsAaAGsArAGwBsAaAGsArAGwBsAaAGsArAGwBsAaAGsArAGwBsAaAGsArAGwBsAaAGsArAGwBsAagNTQuL05bRwwxze3jVRDdHV6c/LbwXJyc3qV/fvDxtHV7fEBc3t1lP3DK4bRODpoGgb9+zPGgZMq+D+lEx0SQqX4QQAAAABJRU5ErkJggg==;" parent="1" vertex="1">
          <mxGeometry x="244.44" y="266" width="51.5" height="37.94" as="geometry" />
        </mxCell>
        <mxCell id="-5W91e-iSZ1iDKhAKJ8N-19" value="" style="endArrow=classic;html=1;rounded=0;" parent="1" edge="1">
          <mxGeometry width="50" height="50" relative="1" as="geometry">
            <mxPoint x="567" y="130" as="sourcePoint" />
            <mxPoint x="567" y="250" as="targetPoint" />
          </mxGeometry>
        </mxCell>
        <mxCell id="tXv8NOe42rABdsTD4i_S-3" value="&lt;div&gt;&lt;font style=&quot;font-size: 8px;&quot;&gt;&lt;b&gt;[Rest API]&lt;/b&gt;&lt;/font&gt;&lt;/div&gt;" style="text;html=1;align=center;verticalAlign=middle;resizable=0;points=[];autosize=1;strokeColor=none;fillColor=none;" parent="1" vertex="1">
          <mxGeometry x="235" y="124" width="60" height="30" as="geometry" />
        </mxCell>
        <mxCell id="tXv8NOe42rABdsTD4i_S-4" value="&lt;span style=&quot;font-size: 8px;&quot;&gt;Data pushed to container&lt;/span&gt;" style="text;html=1;align=center;verticalAlign=middle;resizable=0;points=[];autosize=1;strokeColor=none;fillColor=none;" parent="1" vertex="1">
          <mxGeometry x="457.00000000000006" y="170" width="110" height="30" as="geometry" />
        </mxCell>
        <mxCell id="tXv8NOe42rABdsTD4i_S-5" value="&lt;div&gt;&lt;font style=&quot;font-size: 8px;&quot;&gt;&lt;b&gt;Function App - Timer triggered&lt;/b&gt;&lt;/font&gt;&lt;/div&gt;" style="text;html=1;align=center;verticalAlign=middle;resizable=0;points=[];autosize=1;strokeColor=none;fillColor=none;" parent="1" vertex="1">
          <mxGeometry x="579" y="90" width="140" height="30" as="geometry" />
        </mxCell>
        <mxCell id="tXv8NOe42rABdsTD4i_S-6" value="&lt;div&gt;&lt;font style=&quot;font-size: 8px;&quot;&gt;&lt;b&gt;Storage Account&lt;/b&gt;&lt;/font&gt;&lt;/div&gt;" style="text;html=1;align=center;verticalAlign=middle;resizable=0;points=[];autosize=1;strokeColor=none;fillColor=none;" parent="1" vertex="1">
          <mxGeometry x="522.63" y="297" width="90" height="30" as="geometry" />
        </mxCell>
        <mxCell id="tXv8NOe42rABdsTD4i_S-7" value="" style="endArrow=classic;html=1;rounded=0;" parent="1" edge="1">
          <mxGeometry width="50" height="50" relative="1" as="geometry">
            <mxPoint x="540" y="283" as="sourcePoint" />
            <mxPoint x="307" y="283" as="targetPoint" />
          </mxGeometry>
        </mxCell>
        <mxCell id="uQIU-FUUTvGjHlH2q-2H-1" value="&lt;font style=&quot;font-size: 8px;&quot;&gt;Connected using client credentials which rely on an&amp;nbsp;&lt;/font&gt;&lt;div&gt;&lt;font style=&quot;font-size: 8px;&quot;&gt;app registration (Service Principal) in Entra ID&lt;/font&gt;&lt;/div&gt;" style="text;html=1;align=center;verticalAlign=middle;resizable=0;points=[];autosize=1;strokeColor=none;fillColor=none;" vertex="1" parent="1">
          <mxGeometry x="160" y="303.94" width="210" height="40" as="geometry" />
        </mxCell>
        <mxCell id="uQIU-FUUTvGjHlH2q-2H-2" value="&lt;span style=&quot;font-size: 8px; background-color: transparent; color: light-dark(rgb(0, 0, 0), rgb(255, 255, 255));&quot;&gt;ABFS&lt;/span&gt;&lt;div&gt;&lt;span style=&quot;font-size: 8px; background-color: transparent; color: light-dark(rgb(0, 0, 0), rgb(255, 255, 255));&quot;&gt;&amp;nbsp;Azure Data Lake Storage Gen2)&lt;/span&gt;&lt;/div&gt;" style="text;html=1;align=center;verticalAlign=middle;resizable=0;points=[];autosize=1;strokeColor=none;fillColor=none;" vertex="1" parent="1">
          <mxGeometry x="500" y="314" width="140" height="40" as="geometry" />
        </mxCell>
      </root>
    </mxGraphModel>
  </diagram>
</mxfile>
